# xmcd
#
# Track frame offsets:
# 150
# 17900
# 32664
# 47746
# 61477
# 78238
# 93372
# 108328
# 121823
# 139482
# 156392
# 172790
# 189290
# 203985
# 221351
# 235676
# 250845
# 266023
# 281890
# 299957
# 312599
# 328992
#
# Disc length: 4635 seconds
#
#
# Revision: 0
# Processed by: cddbd v1.5.2PL0 Copyright (c) Steve Scherf et al.
# Submitted via: FreeRIP 2.944 
#
DISCID=4e121916
DTITLE=VARIOS - SERTANEJA 2006
DYEAR=1900
DGENRE=SERTANEJO
TTITLE0=CHORAM AS ROSAS - BRUNO E MARRONE
TTITLE1=CANALHA-  CHRISTIAN E RALF
TTITLE2=AGITA AI  - GINO E GENO
TTITLE3=SE TIVER MULHER NOIS VAI - CEZAR E PAULINHO
TTITLE4=ALO MEU POVO- GUILHERME E SANTIAGO
TTITLE5=QUE TESOURO JOAO PEDRO E CRISTIANO
TTITLE6=GALERA CORAÇÃO - HEDSON E HUDSON
TTITLE7=É PRA LÁ QUE EU VOU  - FELIPE E FALCÃO
TTITLE8=POR ONDE ANDEI - EDUARDO COSTA
TTITLE9=FERA MANSA - ZEZE DI CAMARGO E LUCIANO
TTITLE10=A TURMA DO ZOIO ROXO - JAD E JEFERSSON
TTITLE11=FOTO 3X4 - GILBERTO E GILMAR
TTITLE12=TUDO PASSARÁ - LEONARDO
TTITLE13=O PREÇO DA DESILUSÃO - PEDRO E THIAGO
TTITLE14=AJEITE O TREM AI - RIO NEGRO E SOLIMÕES
TTITLE15=TREMELÊ - ZÉ HENRIQUE E GABREL
TTITLE16=EU ME ENGANEI - ATAÍDE E ALEXANDRE
TTITLE17=RODO SEM BORRACHA - JULIANO CEZAR
TTITLE18=SEM DESTINO - CHITAOZINHO E CHORORÓ
TTITLE19=CHEGUEI GALERA - PEDRO PALO E FABIANO
TTITLE20=BREGA DEMAIS - RICK E RENNER
TTITLE21=DESATINO - DANIEL
EXTD=
EXTT0=
EXTT1=
EXTT2=
EXTT3=
EXTT4=
EXTT5=
EXTT6=
EXTT7=
EXTT8=
EXTT9=
EXTT10=
EXTT11=
EXTT12=
EXTT13=
EXTT14=
EXTT15=
EXTT16=
EXTT17=
EXTT18=
EXTT19=
EXTT20=
EXTT21=
PLAYORDER=
